<svg version="1.1" id="Layer_1" xmlns="http://www.w3.org/2000/svg" xmlns:xlink="http://www.w3.org/1999/xlink" x="0px" y="0px"
	 width="100%" viewBox="0 0 444 51" enable-background="new 0 0 444 51" xml:space="preserve">
<path fill="#FCFCFD" opacity="1.000000" stroke="none" 
	d="
M346.000000,52.000000 
	C230.666687,52.000000 115.833359,52.000000 1.000031,52.000000 
	C1.000021,35.000015 1.000021,18.000032 1.000010,1.000035 
	C148.999969,1.000024 296.999939,1.000024 444.999939,1.000012 
	C444.999939,17.999964 444.999939,34.999928 444.999969,51.999947 
	C412.166656,52.000000 379.333344,52.000000 346.000000,52.000000 
M65.538307,42.032661 
	C66.022964,41.731346 66.507622,41.430027 67.555420,40.796341 
	C68.321083,40.402222 69.086754,40.008099 70.703621,39.841640 
	C73.744446,39.278328 76.791573,38.219685 79.824738,38.258286 
	C85.547058,38.331120 85.375702,35.198738 84.554550,31.064163 
	C82.248352,31.446247 80.180649,31.788818 77.521111,32.229443 
	C77.323189,29.844290 77.163620,27.921236 77.529259,25.477720 
	C79.684189,24.795017 81.839119,24.112312 84.453644,23.284004 
	C83.584770,21.243553 82.863472,19.549681 82.350082,18.344040 
	C79.311722,18.627695 77.051643,18.838692 74.892632,18.371952 
	C74.584526,17.586784 74.276413,16.801615 73.937767,15.250896 
	C74.950470,14.490899 75.963173,13.730902 77.251846,13.543120 
	C78.249329,14.188776 79.246811,14.834433 80.244301,15.480088 
	C80.411324,15.110490 80.578339,14.740891 80.745361,14.371292 
	C79.485130,13.907898 78.224892,13.444505 76.979912,12.245131 
	C75.555710,7.820275 71.837471,7.932282 68.074669,7.096015 
	C63.737591,2.750210 54.800884,2.971877 47.225613,7.802994 
	C45.462677,9.204219 43.699741,10.605443 41.250874,12.077176 
	C39.849537,14.088558 38.448200,16.099939 36.832188,18.768654 
	C36.332443,20.908573 35.832703,23.048491 34.698292,25.995216 
	C32.467941,22.857153 28.759539,19.869091 28.421574,16.538975 
	C28.081358,13.186689 31.092031,9.494330 32.633041,5.954157 
	C28.724136,5.612315 24.871397,7.660846 22.083786,11.353123 
	C19.049423,15.372226 21.197578,19.247185 22.465746,23.016663 
	C21.905890,23.054525 21.346031,23.092388 20.234358,22.704296 
	C18.778767,18.992857 17.323175,15.281419 15.724321,11.204692 
	C15.093821,12.216973 13.829847,13.511552 13.424735,15.034581 
	C12.212822,19.590799 14.541058,23.131462 17.492935,26.201656 
	C24.570705,33.563107 33.584404,37.685242 43.377022,41.613419 
	C48.277969,43.050858 53.178913,44.488297 58.861858,46.028187 
	C59.912884,46.132092 60.963909,46.235996 62.528591,46.773026 
	C63.703445,46.482388 64.878304,46.191750 66.036362,45.540520 
	C66.036362,45.540520 66.017944,45.177940 66.821770,45.159931 
	C67.877937,45.175697 68.934105,45.191460 70.172935,45.917522 
	C78.597992,49.958515 82.270561,48.273727 82.745461,40.149883 
	C75.458923,44.322655 75.458923,44.322655 74.568840,41.031296 
	C73.358925,42.043198 72.195137,43.016529 70.317780,43.857681 
	C68.525200,43.244457 66.732620,42.631233 65.538307,42.032661 
M154.095703,34.025055 
	C154.095703,30.528801 154.095703,27.032547 154.095703,23.536293 
	C156.579651,26.901880 158.082672,30.370766 159.779053,33.742355 
	C160.315186,34.807903 161.368362,35.613308 162.184906,36.537766 
	C163.043747,35.659725 164.185379,34.923241 164.708954,33.877361 
	C166.342712,30.613712 167.742706,27.233049 169.233337,23.897751 
	C170.201706,26.714367 170.195801,29.180628 170.202972,31.646849 
	C170.216309,36.221981 170.219498,36.221973 173.828583,35.985603 
	C173.828583,28.724808 173.828583,21.461153 173.828583,12.700738 
	C166.115265,17.064325 166.594803,25.461466 161.988083,30.851988 
	C159.830643,26.044195 157.912811,21.293074 155.547058,16.776558 
	C154.795120,15.341024 152.851013,14.529954 150.291183,12.522427 
	C150.291183,20.334440 150.291000,26.296600 150.291443,32.258762 
	C150.291489,32.924023 150.120621,33.654633 150.339279,34.238796 
	C150.644882,35.055214 151.242401,35.762360 151.715012,36.516262 
	C152.505737,35.975246 153.296478,35.434231 154.095703,34.025055 
M283.608795,27.941626 
	C286.504242,30.805527 286.689667,36.597015 292.783539,36.533756 
	C292.783539,28.981033 292.783539,21.723419 292.783539,14.465803 
	C292.405823,14.186626 292.028076,13.907450 291.650360,13.628272 
	C290.821136,14.725069 289.362732,15.774966 289.276855,16.927168 
	C288.980438,20.904070 289.162720,24.916649 289.162720,29.348719 
	C283.335663,24.527634 282.688721,16.091585 274.549011,13.473851 
	C274.549011,20.931297 274.449738,27.406359 274.651215,33.872051 
	C274.683136,34.894695 276.072510,35.875042 276.834259,36.874947 
	C277.330780,36.587833 277.827332,36.300720 278.323853,36.013603 
	C278.323853,31.157297 278.323853,26.300991 278.323853,19.985977 
	C280.489319,23.287186 281.827087,25.326572 283.608795,27.941626 
M384.635895,32.940258 
	C386.068604,35.051723 387.112976,37.974689 390.849640,35.790989 
	C390.849640,29.490145 390.973206,23.178335 390.734863,16.880224 
	C390.692352,15.756166 389.150208,14.688854 388.300507,13.595341 
	C387.837585,13.876349 387.374634,14.157357 386.911713,14.438366 
	C386.911713,19.335255 386.911713,24.232143 386.911713,29.424517 
	C381.222595,24.879423 380.547150,16.095207 372.150330,13.356732 
	C372.150330,21.031359 372.024536,27.353081 372.267273,33.660618 
	C372.310547,34.785419 373.881836,35.851421 374.747589,36.944572 
	C375.224487,36.631149 375.701385,36.317726 376.178284,36.004303 
	C376.178284,31.135754 376.178284,26.267204 376.178284,20.224161 
	C379.307404,24.966272 381.747284,28.663834 384.635895,32.940258 
M199.458420,33.787548 
	C199.458420,29.798153 199.458420,25.808756 199.458420,21.819361 
	C202.588181,24.541704 204.490646,27.409100 206.387207,30.280373 
	C210.443420,36.421211 210.442184,36.422028 213.965820,35.813118 
	C213.965820,28.692379 213.965820,21.567614 213.965820,14.164739 
	C213.021118,14.164739 211.584396,14.084325 211.573288,14.176258 
	C210.983841,19.051970 210.514786,23.942238 210.020523,28.959442 
	C204.505569,24.717859 204.007889,16.103148 196.075104,13.479371 
	C196.075104,21.602669 196.075104,28.873163 196.075104,37.399654 
	C197.685333,36.081276 198.568436,35.358231 199.458420,33.787548 
M123.040749,18.935677 
	C120.095673,13.882596 116.816513,12.942292 107.727928,14.673988 
	C107.727928,21.092527 107.669205,27.566309 107.799805,34.036274 
	C107.816757,34.876289 108.810287,35.696594 109.351463,36.526024 
	C109.997917,35.634201 111.051666,34.806416 111.204109,33.836918 
	C111.500397,31.952543 111.290840,29.988630 111.290840,27.883726 
	C117.936974,27.353453 115.745613,38.115868 123.321098,36.107059 
	C121.653915,33.143871 120.136688,30.447206 119.313583,28.984251 
	C120.852844,25.292549 122.011032,22.514807 123.040749,18.935677 
M366.592346,31.954422 
	C367.081573,30.909603 367.731903,29.908913 368.032288,28.812366 
	C369.377838,23.900492 368.439728,19.487846 364.347961,16.272919 
	C360.305908,13.097043 355.690582,12.877145 351.277557,15.365724 
	C346.734955,17.927368 345.192749,22.185307 345.911804,27.256557 
	C346.526642,31.592705 349.011017,34.548100 353.082794,35.999104 
	C358.153168,37.805965 362.529510,36.549900 366.592346,31.954422 
M266.123688,36.318668 
	C267.295593,36.318668 268.467499,36.318668 270.069519,36.318668 
	C268.131012,32.989029 266.557983,30.287134 264.950500,27.526051 
	C268.728607,25.423334 271.147095,22.711481 269.276001,18.224525 
	C267.534210,14.047647 262.048187,12.832454 254.063293,14.785586 
	C254.063293,21.028858 253.944656,27.330271 254.173935,33.618992 
	C254.214661,34.736046 255.701920,35.800358 256.521240,36.889027 
	C257.047668,36.588860 257.574097,36.288692 258.100525,35.988525 
	C258.100525,33.278687 258.100525,30.568851 258.100525,27.859015 
	C258.635529,27.601900 259.170532,27.344788 259.705536,27.087673 
	C261.636932,30.044374 263.568359,33.001076 266.123688,36.318668 
M399.745300,21.120071 
	C397.971222,26.054214 396.197174,30.988356 394.423096,35.922497 
	C396.375336,36.218735 398.307770,35.816898 398.463226,35.053314 
	C399.189514,31.485598 401.683014,31.901873 404.172943,31.977198 
	C405.661499,32.022228 407.152496,31.985462 407.773071,31.985462 
	C409.881287,33.993977 411.447449,35.486053 413.013580,36.978134 
	C413.447662,36.610294 413.881744,36.242455 414.315826,35.874619 
	C411.925446,29.203293 409.607819,22.503883 407.056305,15.894764 
	C406.722015,15.028861 405.226532,14.235675 404.198059,14.135496 
	C403.414734,14.059196 402.201294,14.949896 401.743408,15.738129 
	C400.924011,17.148788 400.529694,18.806379 399.745300,21.120071 
M312.079559,23.324064 
	C311.183411,20.831606 310.407776,18.286921 309.356689,15.861609 
	C308.336365,13.507288 304.977173,13.075065 304.124725,15.263247 
	C301.459290,22.105022 299.137939,29.080849 296.683228,36.004730 
	C297.205536,36.362675 297.727814,36.720619 298.250122,37.078564 
	C299.676239,35.554047 301.102356,34.029530 302.315857,32.732300 
	C308.016449,28.984892 311.639954,34.247337 315.912262,36.972500 
	C316.112000,36.547424 316.311737,36.122345 316.511444,35.697266 
	C315.112579,31.822996 313.713684,27.948725 312.079559,23.324064 
M244.526703,17.090967 
	C246.269394,17.090967 248.012085,17.090967 249.754761,17.090967 
	C249.791946,16.513052 249.829117,15.935138 249.866287,15.357223 
	C246.031570,12.479741 241.569458,14.562510 237.358368,14.045776 
	C237.358368,21.846325 237.358368,28.947035 237.358368,36.616722 
	C240.859711,36.616722 244.154251,36.735065 247.429108,36.533520 
	C248.247910,36.483128 249.003311,35.402878 249.787857,34.795948 
	C249.033890,34.325436 248.310669,33.522167 247.519943,33.449062 
	C245.447464,33.257458 243.345551,33.384418 241.301361,33.384418 
	C241.301361,30.819128 241.301361,28.889101 241.301361,26.794506 
	C243.221481,26.794506 244.899948,26.939667 246.533798,26.732660 
	C247.338684,26.630684 248.061066,25.877531 248.820770,25.419033 
	C248.049622,24.821913 247.339142,23.841976 246.494583,23.708181 
	C244.789551,23.438059 243.011688,23.627676 240.399643,23.627676 
	C242.164566,21.080069 238.605316,17.397169 244.526703,17.090967 
M140.287628,22.736416 
	C139.251648,25.620104 138.215668,28.503794 136.806229,32.427010 
	C134.620712,26.390079 133.038818,21.512663 131.036301,16.814543 
	C130.473434,15.494010 128.675171,14.700054 127.443581,13.664564 
	C127.115486,14.039915 126.787392,14.415265 126.459297,14.790615 
	C128.923782,21.300486 131.319794,27.838022 133.926804,34.290314 
	C134.316574,35.255005 135.664108,36.361347 136.627090,36.418648 
	C137.610336,36.477161 139.242035,35.554256 139.597641,34.664471 
	C142.265137,27.989861 144.687103,21.217134 147.185913,14.475113 
	C146.754089,14.130245 146.322266,13.785378 145.890442,13.440510 
	C144.807068,14.429885 143.405502,15.238701 142.716904,16.452103 
	C141.749527,18.156748 141.311707,20.161909 140.287628,22.736416 
M327.396240,36.540649 
	C327.903931,35.167515 328.801331,33.807903 328.849518,32.418827 
	C329.025818,27.336308 328.919312,22.243977 328.919312,17.198593 
	C331.341003,17.084352 333.092773,17.001713 334.844574,16.919071 
	C334.910248,16.260277 334.975922,15.601481 335.041595,14.942686 
	C330.542389,12.906426 325.453735,14.429132 320.687500,14.145103 
	C320.109375,14.110649 319.446259,15.502513 318.032806,17.158617 
	C321.245209,17.158617 322.980042,17.158617 325.040894,17.158617 
	C325.040894,22.530724 324.933228,27.488703 325.110107,32.436504 
	C325.159637,33.820984 326.047852,35.175476 327.396240,36.540649 
M227.682434,32.991966 
	C227.682434,27.733177 227.682434,22.474386 227.682434,17.101099 
	C229.058334,17.101099 229.761368,17.251678 230.362595,17.068367 
	C231.464020,16.732553 232.505371,16.199621 233.571762,15.748890 
	C232.456894,15.168564 231.384384,14.220143 230.218185,14.085920 
	C227.918259,13.821218 225.540344,13.794857 223.244308,14.075633 
	C221.430466,14.297442 219.690857,15.126265 217.918274,15.685513 
	C219.602798,16.192492 221.292511,16.683336 222.966721,17.222353 
	C223.244888,17.311903 223.455444,17.611467 223.999969,18.067528 
	C223.999969,23.932610 223.999969,30.048197 223.999969,36.163784 
	C224.438736,36.439354 224.877502,36.714924 225.316269,36.990494 
	C226.104645,35.950249 226.893021,34.910004 227.682434,32.991966 
M421.755920,27.480736 
	C421.755524,23.983593 421.960480,20.467564 421.641602,16.999716 
	C421.532135,15.809476 420.112671,14.739708 419.291687,13.614904 
	C418.909485,13.888021 418.527313,14.161139 418.145111,14.434258 
	C418.145111,21.683460 418.145111,28.932663 418.145111,36.618828 
	C419.852600,36.618828 421.354797,36.830643 422.769684,36.569439 
	C424.920319,36.172413 427.010345,35.447304 429.126129,34.861553 
	C427.068542,34.352150 425.008636,33.851894 422.956055,33.323006 
	C422.664429,33.247856 422.408661,33.033535 421.755920,32.674274 
	C421.755920,31.411789 421.755920,29.939133 421.755920,27.480736 
M342.106934,15.847195 
	C341.384827,15.236648 340.662750,14.626101 339.940643,14.015562 
	C339.383606,14.843973 338.364502,15.661082 338.343933,16.502607 
	C338.201599,22.321758 338.145355,28.150879 338.378052,33.964115 
	C338.420135,35.015511 339.922241,36.008469 340.750336,37.028408 
	C341.204437,36.736855 341.658569,36.445301 342.112671,36.153748 
	C342.112671,29.696360 342.112671,23.238970 342.106934,15.847195 
M191.027588,18.684414 
	C191.027588,17.218044 191.027588,15.751673 191.027588,14.285302 
	C190.556320,14.021056 190.085052,13.756809 189.613785,13.492562 
	C188.792343,14.533127 187.303696,15.546850 187.260559,16.618723 
	C187.026505,22.436703 187.022949,28.274397 187.269257,34.091366 
	C187.312164,35.104313 188.927200,36.050690 189.816116,37.027813 
	C190.219940,36.703999 190.623764,36.380184 191.027588,36.056370 
	C191.027588,30.587528 191.027588,25.118689 191.027588,18.684414 
M84.736046,29.246962 
	C84.924332,28.005190 85.112617,26.763416 85.300896,25.521645 
	C84.572975,25.554655 83.845047,25.587666 83.117126,25.620678 
	C83.455887,26.736485 83.794647,27.852293 84.736046,29.246962 
z"/>
<path fill="#171717" opacity="1.000000" stroke="none" 
	d="
M154.091461,34.459137 
	C153.296478,35.434231 152.505737,35.975246 151.714996,36.516266 
	C151.242401,35.762360 150.644882,35.055214 150.339279,34.238796 
	C150.120621,33.654633 150.291489,32.924023 150.291443,32.258762 
	C150.291000,26.296600 150.291183,20.334440 150.291183,12.522427 
	C152.851013,14.529954 154.795120,15.341024 155.547058,16.776558 
	C157.912811,21.293074 159.830643,26.044195 161.988083,30.851988 
	C166.594803,25.461466 166.115265,17.064325 173.828583,12.700738 
	C173.828583,21.461153 173.828583,28.724808 173.828583,35.985603 
	C170.219498,36.221973 170.216309,36.221981 170.202972,31.646849 
	C170.195801,29.180628 170.201706,26.714367 169.233337,23.897751 
	C167.742706,27.233049 166.342712,30.613712 164.708954,33.877361 
	C164.185379,34.923241 163.043747,35.659725 162.184906,36.537766 
	C161.368362,35.613308 160.315186,34.807903 159.779053,33.742355 
	C158.082672,30.370766 156.579651,26.901880 154.095703,23.536293 
	C154.095703,27.032547 154.095703,30.528801 154.091461,34.459137 
z"/>
<path fill="#454243" opacity="1.000000" stroke="none" 
	d="
M23.304005,22.940344 
	C21.197578,19.247185 19.049423,15.372226 22.083786,11.353123 
	C24.871397,7.660846 28.724136,5.612315 32.633041,5.954157 
	C31.092031,9.494330 28.081358,13.186689 28.421574,16.538975 
	C28.759539,19.869091 32.467941,22.857153 35.007938,25.551632 
	C35.317585,25.108047 35.433823,25.057560 35.123894,25.388988 
	C39.191151,28.877331 43.568333,32.034245 48.175964,35.463081 
	C49.566334,35.865250 50.726257,35.995495 52.072018,36.425705 
	C54.804745,38.069485 57.351635,39.413300 60.233574,40.837799 
	C61.378365,41.286987 62.188107,41.655491 62.961678,42.465805 
	C62.900173,43.202057 62.874844,43.496498 62.437271,43.758633 
	C54.683788,41.151100 47.342552,38.575871 39.693138,35.956093 
	C37.590916,34.607483 35.796867,33.303425 33.749313,31.784563 
	C30.098537,28.693285 26.701271,25.816814 23.304005,22.940344 
z"/>
<path fill="#0F0F0F" opacity="1.000000" stroke="none" 
	d="
M283.386810,27.653793 
	C281.827087,25.326572 280.489319,23.287186 278.323853,19.985977 
	C278.323853,26.300991 278.323853,31.157297 278.323853,36.013603 
	C277.827332,36.300720 277.330780,36.587833 276.834259,36.874947 
	C276.072510,35.875042 274.683136,34.894695 274.651215,33.872051 
	C274.449738,27.406359 274.549011,20.931297 274.549011,13.473851 
	C282.688721,16.091585 283.335663,24.527634 289.162720,29.348719 
	C289.162720,24.916649 288.980438,20.904070 289.276855,16.927168 
	C289.362732,15.774966 290.821136,14.725069 291.650360,13.628272 
	C292.028076,13.907450 292.405823,14.186626 292.783539,14.465803 
	C292.783539,21.723419 292.783539,28.981033 292.783539,36.533756 
	C286.689667,36.597015 286.504242,30.805527 283.386810,27.653793 
z"/>
<path fill="#191919" opacity="1.000000" stroke="none" 
	d="
M384.411499,32.650826 
	C381.747284,28.663834 379.307404,24.966272 376.178284,20.224161 
	C376.178284,26.267204 376.178284,31.135754 376.178284,36.004303 
	C375.701385,36.317726 375.224487,36.631149 374.747589,36.944572 
	C373.881836,35.851421 372.310547,34.785419 372.267273,33.660618 
	C372.024536,27.353081 372.150330,21.031359 372.150330,13.356732 
	C380.547150,16.095207 381.222595,24.879423 386.911713,29.424517 
	C386.911713,24.232143 386.911713,19.335255 386.911713,14.438366 
	C387.374634,14.157357 387.837585,13.876349 388.300507,13.595341 
	C389.150208,14.688854 390.692352,15.756166 390.734863,16.880224 
	C390.973206,23.178335 390.849640,29.490145 390.849640,35.790989 
	C387.112976,37.974689 386.068604,35.051723 384.411499,32.650826 
z"/>
<path fill="#090909" opacity="1.000000" stroke="none" 
	d="
M199.454987,34.211365 
	C198.568436,35.358231 197.685333,36.081276 196.075104,37.399654 
	C196.075104,28.873163 196.075104,21.602669 196.075104,13.479371 
	C204.007889,16.103148 204.505569,24.717859 210.020523,28.959442 
	C210.514786,23.942238 210.983841,19.051970 211.573288,14.176258 
	C211.584396,14.084325 213.021118,14.164739 213.965820,14.164739 
	C213.965820,21.567614 213.965820,28.692379 213.965820,35.813118 
	C210.442184,36.422028 210.443420,36.421211 206.387207,30.280373 
	C204.490646,27.409100 202.588181,24.541704 199.458420,21.819361 
	C199.458420,25.808756 199.458420,29.798153 199.454987,34.211365 
z"/>
<path fill="#5DB1E4" opacity="1.000000" stroke="none" 
	d="
M74.791557,19.049686 
	C77.051643,18.838692 79.311722,18.627695 82.350082,18.344040 
	C82.863472,19.549681 83.584770,21.243553 84.453644,23.284004 
	C81.839119,24.112312 79.684189,24.795017 76.999596,25.742937 
	C76.291931,26.012573 76.113937,26.016991 75.503189,25.984810 
	C68.477913,26.278875 61.873695,26.475182 55.302132,27.046822 
	C53.886608,27.169954 52.588879,28.647232 52.005203,29.015709 
	C50.369740,27.989414 48.707592,26.946373 47.032936,25.542458 
	C46.646503,23.561111 46.272579,21.940639 46.205555,20.247807 
	C46.931469,20.150187 47.350483,20.124924 47.922562,20.248295 
	C48.075630,20.396933 48.468285,20.551991 48.468285,20.551991 
	C48.468285,20.551991 48.875671,20.442142 49.212944,20.550922 
	C50.017162,20.637609 50.484108,20.615515 51.237339,20.661175 
	C52.016575,20.489876 52.509525,20.250816 53.382523,20.187836 
	C57.950851,20.893541 62.283173,22.934656 66.418060,19.169504 
	C69.369980,21.457840 71.929123,21.650776 74.525467,19.012787 
	C74.614876,19.019184 74.791557,19.049688 74.791557,19.049686 
z"/>
<path fill="#0E0E0E" opacity="1.000000" stroke="none" 
	d="
M123.104980,19.336369 
	C122.011032,22.514807 120.852844,25.292549 119.313583,28.984251 
	C120.136688,30.447206 121.653915,33.143871 123.321098,36.107059 
	C115.745613,38.115868 117.936974,27.353453 111.290840,27.883726 
	C111.290840,29.988630 111.500397,31.952543 111.204109,33.836918 
	C111.051666,34.806416 109.997917,35.634201 109.351463,36.526024 
	C108.810287,35.696594 107.816757,34.876289 107.799805,34.036274 
	C107.669205,27.566309 107.727928,21.092527 107.727928,14.673988 
	C116.816513,12.942292 120.095673,13.882596 123.104980,19.336369 
M111.929947,24.439247 
	C112.900024,24.533123 114.125679,25.045387 114.790398,24.639353 
	C116.514000,23.586523 117.990677,22.129452 119.565910,20.833733 
	C118.008194,19.563726 116.565132,18.091852 114.841988,17.113092 
	C114.040085,16.657606 112.694641,17.159035 111.380745,17.239922 
	C111.380745,19.628391 111.380745,21.719580 111.929947,24.439247 
z"/>
<path fill="#131313" opacity="1.000000" stroke="none" 
	d="
M366.351929,32.243835 
	C362.529510,36.549900 358.153168,37.805965 353.082794,35.999104 
	C349.011017,34.548100 346.526642,31.592705 345.911804,27.256557 
	C345.192749,22.185307 346.734955,17.927368 351.277557,15.365724 
	C355.690582,12.877145 360.305908,13.097043 364.347961,16.272919 
	C368.439728,19.487846 369.377838,23.900492 368.032288,28.812366 
	C367.731903,29.908913 367.081573,30.909603 366.351929,32.243835 
M359.751617,17.462374 
	C355.519775,16.317060 352.165894,17.495203 350.236115,21.504541 
	C348.503967,25.103222 349.680420,30.962841 352.937439,32.009190 
	C355.680450,32.890423 359.662384,32.886925 361.971405,31.458015 
	C365.523712,29.259735 365.665283,24.990734 363.828979,21.222792 
	C363.165466,19.861261 361.599548,18.939486 359.751617,17.462374 
z"/>
<path fill="#161616" opacity="1.000000" stroke="none" 
	d="
M265.811707,36.138222 
	C263.568359,33.001076 261.636932,30.044374 259.705536,27.087673 
	C259.170532,27.344788 258.635529,27.601900 258.100525,27.859015 
	C258.100525,30.568851 258.100525,33.278687 258.100525,35.988525 
	C257.574097,36.288692 257.047668,36.588860 256.521240,36.889027 
	C255.701920,35.800358 254.214661,34.736046 254.173935,33.618992 
	C253.944656,27.330271 254.063293,21.028858 254.063293,14.785586 
	C262.048187,12.832454 267.534210,14.047647 269.276001,18.224525 
	C271.147095,22.711481 268.728607,25.423334 264.950500,27.526051 
	C266.557983,30.287134 268.131012,32.989029 270.069519,36.318668 
	C268.467499,36.318668 267.295593,36.318668 265.811707,36.138222 
M265.614380,18.978666 
	C263.219910,18.173615 260.825470,17.368563 258.211334,16.489653 
	C258.211334,19.920786 258.211334,22.151346 258.211334,24.611624 
	C261.971344,24.423027 266.198395,25.681211 265.614380,18.978666 
z"/>
<path fill="#121212" opacity="1.000000" stroke="none" 
	d="
M399.851501,20.740412 
	C400.529694,18.806379 400.924011,17.148788 401.743408,15.738129 
	C402.201294,14.949896 403.414734,14.059196 404.198059,14.135496 
	C405.226532,14.235675 406.722015,15.028861 407.056305,15.894764 
	C409.607819,22.503883 411.925446,29.203293 414.315826,35.874619 
	C413.881744,36.242455 413.447662,36.610294 413.013580,36.978134 
	C411.447449,35.486053 409.881287,33.993977 407.773071,31.985462 
	C407.152496,31.985462 405.661499,32.022228 404.172943,31.977198 
	C401.683014,31.901873 399.189514,31.485598 398.463226,35.053314 
	C398.307770,35.816898 396.375336,36.218735 394.423096,35.922497 
	C396.197174,30.988356 397.971222,26.054214 399.851501,20.740412 
M407.555511,28.719475 
	C406.644562,25.639847 405.733643,22.560219 404.485870,18.341894 
	C403.006500,22.494345 401.931763,25.510935 400.717743,28.918493 
	C403.156342,28.918493 404.967865,28.918493 407.555511,28.719475 
z"/>
<path fill="#111111" opacity="1.000000" stroke="none" 
	d="
M312.197205,23.699259 
	C313.713684,27.948725 315.112579,31.822996 316.511444,35.697266 
	C316.311737,36.122345 316.112000,36.547424 315.912262,36.972500 
	C311.639954,34.247337 308.016449,28.984892 302.315857,32.732300 
	C301.102356,34.029530 299.676239,35.554047 298.250122,37.078564 
	C297.727814,36.720619 297.205536,36.362675 296.683228,36.004730 
	C299.137939,29.080849 301.459290,22.105022 304.124725,15.263247 
	C304.977173,13.075065 308.336365,13.507288 309.356689,15.861609 
	C310.407776,18.286921 311.183411,20.831606 312.197205,23.699259 
M303.606964,27.151134 
	C305.562042,27.915565 307.517120,28.679998 310.704865,29.926397 
	C308.981445,25.259085 307.902466,22.337099 306.574615,18.741053 
	C305.505310,21.779484 304.689667,24.097176 303.606964,27.151134 
z"/>
<path fill="#202020" opacity="1.000000" stroke="none" 
	d="
M244.068512,17.091223 
	C238.605316,17.397169 242.164566,21.080069 240.399643,23.627676 
	C243.011688,23.627676 244.789551,23.438059 246.494583,23.708181 
	C247.339142,23.841976 248.049622,24.821913 248.820770,25.419037 
	C248.061066,25.877531 247.338684,26.630684 246.533798,26.732660 
	C244.899948,26.939667 243.221481,26.794506 241.301361,26.794506 
	C241.301361,28.889101 241.301361,30.819128 241.301361,33.384418 
	C243.345551,33.384418 245.447464,33.257458 247.519943,33.449062 
	C248.310669,33.522167 249.033890,34.325436 249.787857,34.795952 
	C249.003311,35.402878 248.247910,36.483128 247.429108,36.533520 
	C244.154251,36.735065 240.859711,36.616722 237.358368,36.616722 
	C237.358368,28.947035 237.358368,21.846325 237.358368,14.045776 
	C241.569458,14.562510 246.031570,12.479741 249.866287,15.357223 
	C249.829117,15.935138 249.791946,16.513052 249.754761,17.090967 
	C248.012085,17.090967 246.269394,17.090967 244.068512,17.091223 
z"/>
<path fill="#151515" opacity="1.000000" stroke="none" 
	d="
M140.467514,22.387480 
	C141.311707,20.161909 141.749527,18.156748 142.716904,16.452103 
	C143.405502,15.238701 144.807068,14.429885 145.890442,13.440510 
	C146.322266,13.785378 146.754089,14.130245 147.185913,14.475113 
	C144.687103,21.217134 142.265137,27.989861 139.597641,34.664471 
	C139.242035,35.554256 137.610336,36.477161 136.627090,36.418648 
	C135.664108,36.361347 134.316574,35.255005 133.926804,34.290314 
	C131.319794,27.838022 128.923782,21.300486 126.459297,14.790615 
	C126.787392,14.415265 127.115486,14.039915 127.443581,13.664564 
	C128.675171,14.700054 130.473434,15.494010 131.036301,16.814543 
	C133.038818,21.512663 134.620712,26.390079 136.806229,32.427010 
	C138.215668,28.503794 139.251648,25.620104 140.467514,22.387480 
z"/>
<path fill="#5FB1E4" opacity="1.000000" stroke="none" 
	d="
M76.975876,12.970902 
	C75.963173,13.730902 74.950470,14.490899 73.969604,15.624738 
	C74.001450,15.998579 74.032875,15.978059 73.677368,15.864500 
	C70.699150,12.770599 67.839378,14.007999 64.525452,15.189985 
	C59.635754,14.770047 55.199467,14.247777 50.759823,14.217442 
	C49.165001,14.206544 47.562077,15.380699 45.947441,15.645348 
	C44.600292,14.186674 43.268547,13.096670 41.936806,12.006667 
	C43.699741,10.605443 45.462677,9.204219 47.723511,8.056060 
	C54.940826,10.170275 61.681885,12.919636 68.231789,7.821691 
	C71.837471,7.932282 75.555710,7.820275 76.989700,12.623119 
	C76.999481,13.001106 76.975876,12.970901 76.975876,12.970902 
z"/>
<path fill="#605E5F" opacity="1.000000" stroke="none" 
	d="
M34.002819,31.999371 
	C35.796867,33.303425 37.590916,34.607483 39.727722,36.304794 
	C41.051231,38.150288 42.031979,39.602524 43.012730,41.054760 
	C33.584404,37.685242 24.570705,33.563107 17.492935,26.201656 
	C14.541058,23.131462 12.212822,19.590799 13.424735,15.034581 
	C13.829847,13.511552 15.093821,12.216973 15.724321,11.204692 
	C17.323175,15.281419 18.778767,18.992857 20.625425,23.236256 
	C24.278664,26.575945 27.471548,29.472771 30.864929,32.111786 
	C31.498539,32.604542 32.936214,32.063385 34.002819,31.999371 
z"/>
<path fill="#5EADE1" opacity="1.000000" stroke="none" 
	d="
M75.935936,26.021410 
	C76.113937,26.016991 76.291931,26.012573 76.736984,26.003166 
	C77.163620,27.921236 77.323189,29.844290 77.521111,32.229443 
	C80.180649,31.788818 82.248352,31.446247 84.554550,31.064163 
	C85.375702,35.198738 85.547058,38.331120 79.824738,38.258286 
	C76.791573,38.219685 73.744446,39.278328 70.015778,39.519646 
	C65.185188,37.768318 61.042442,36.338985 56.968895,34.736153 
	C57.038090,34.562649 57.119576,34.197575 57.577419,34.167820 
	C61.671249,34.051575 65.311119,34.043060 68.942406,33.862175 
	C76.244553,33.498436 76.242622,33.459660 75.935936,26.021410 
z"/>
<path fill="#151515" opacity="1.000000" stroke="none" 
	d="
M326.973785,36.542187 
	C326.047852,35.175476 325.159637,33.820984 325.110107,32.436504 
	C324.933228,27.488703 325.040894,22.530724 325.040894,17.158617 
	C322.980042,17.158617 321.245209,17.158617 318.032806,17.158617 
	C319.446259,15.502513 320.109375,14.110649 320.687500,14.145103 
	C325.453735,14.429132 330.542389,12.906426 335.041595,14.942686 
	C334.975922,15.601481 334.910248,16.260277 334.844574,16.919071 
	C333.092773,17.001713 331.341003,17.084352 328.919312,17.198593 
	C328.919312,22.243977 329.025818,27.336308 328.849518,32.418827 
	C328.801331,33.807903 327.903931,35.167515 326.973785,36.542187 
z"/>
<path fill="#191919" opacity="1.000000" stroke="none" 
	d="
M227.681915,33.430862 
	C226.893021,34.910004 226.104645,35.950249 225.316269,36.990494 
	C224.877502,36.714924 224.438736,36.439354 223.999969,36.163784 
	C223.999969,30.048197 223.999969,23.932610 223.999969,18.067528 
	C223.455444,17.611467 223.244888,17.311903 222.966721,17.222353 
	C221.292511,16.683336 219.602798,16.192492 217.918274,15.685511 
	C219.690857,15.126265 221.430466,14.297442 223.244308,14.075633 
	C225.540344,13.794857 227.918259,13.821218 230.218185,14.085920 
	C231.384384,14.220143 232.456894,15.168564 233.571762,15.748888 
	C232.505371,16.199621 231.464020,16.732553 230.362595,17.068367 
	C229.761368,17.251678 229.058334,17.101099 227.682434,17.101099 
	C227.682434,22.474386 227.682434,27.733177 227.681915,33.430862 
z"/>
<path fill="#1F1F1F" opacity="1.000000" stroke="none" 
	d="
M421.755920,27.973606 
	C421.755920,29.939133 421.755920,31.411789 421.755920,32.674274 
	C422.408661,33.033535 422.664429,33.247856 422.956055,33.323006 
	C425.008636,33.851894 427.068542,34.352150 429.126129,34.861549 
	C427.010345,35.447304 424.920319,36.172413 422.769684,36.569439 
	C421.354797,36.830643 419.852600,36.618828 418.145111,36.618828 
	C418.145111,28.932663 418.145111,21.683460 418.145111,14.434258 
	C418.527313,14.161139 418.909485,13.888021 419.291687,13.614904 
	C420.112671,14.739708 421.532135,15.809476 421.641602,16.999716 
	C421.960480,20.467564 421.755524,23.983593 421.755920,27.973606 
z"/>
<path fill="#82C0E5" opacity="1.000000" stroke="none" 
	d="
M68.153229,7.458853 
	C61.681885,12.919636 54.940826,10.170275 48.059349,7.952811 
	C54.800884,2.971877 63.737591,2.750210 68.153229,7.458853 
z"/>
<path fill="#1F1F1F" opacity="1.000000" stroke="none" 
	d="
M342.109802,16.314388 
	C342.112671,23.238970 342.112671,29.696360 342.112671,36.153748 
	C341.658569,36.445301 341.204437,36.736855 340.750336,37.028408 
	C339.922241,36.008469 338.420135,35.015511 338.378052,33.964115 
	C338.145355,28.150879 338.201599,22.321758 338.343933,16.502607 
	C338.364502,15.661082 339.383606,14.843973 339.940643,14.015558 
	C340.662750,14.626101 341.384827,15.236648 342.109802,16.314388 
z"/>
<path fill="#1A1A1A" opacity="1.000000" stroke="none" 
	d="
M191.027588,19.167131 
	C191.027588,25.118689 191.027588,30.587528 191.027588,36.056370 
	C190.623764,36.380184 190.219940,36.703999 189.816116,37.027813 
	C188.927200,36.050690 187.312164,35.104313 187.269257,34.091366 
	C187.022949,28.274397 187.026505,22.436703 187.260559,16.618723 
	C187.303696,15.546850 188.792343,14.533127 189.613785,13.492562 
	C190.085052,13.756809 190.556320,14.021056 191.027588,14.285302 
	C191.027588,15.751673 191.027588,17.218044 191.027588,19.167131 
z"/>
<path fill="#CDCCCC" opacity="1.000000" stroke="none" 
	d="
M43.194878,41.334091 
	C42.031979,39.602524 41.051231,38.150288 40.035896,36.349346 
	C47.342552,38.575871 54.683788,41.151100 62.584816,43.856323 
	C63.446453,44.153976 63.748299,44.321636 64.157761,44.816841 
	C64.861298,45.396626 65.457222,45.648869 66.053154,45.901112 
	C64.878304,46.191750 63.703445,46.482388 62.109585,46.236458 
	C60.487007,45.775169 59.283432,45.850452 58.079861,45.925735 
	C53.178913,44.488297 48.277969,43.050858 43.194878,41.334091 
z"/>
<path fill="#4B7DC3" opacity="1.000000" stroke="none" 
	d="
M45.898655,20.320166 
	C46.272579,21.940639 46.646503,23.561111 46.614281,25.565527 
	C44.304893,25.568996 42.415974,25.028696 40.494068,24.856434 
	C38.826725,24.706989 37.122017,24.974390 35.433823,25.057560 
	C35.433823,25.057560 35.317585,25.108047 35.325272,25.148228 
	C35.832703,23.048491 36.332443,20.908573 37.323685,18.403551 
	C40.212955,18.012602 42.610737,17.986753 45.033012,18.288086 
	C45.337894,19.183567 45.618275,19.751867 45.898655,20.320166 
z"/>
<path fill="#F0F2F5" opacity="1.000000" stroke="none" 
	d="
M71.031342,43.989861 
	C72.195137,43.016529 73.358925,42.043198 74.568840,41.031296 
	C75.458923,44.322655 75.458923,44.322655 82.745461,40.149883 
	C82.270561,48.273727 78.597992,49.958515 70.351334,45.444145 
	C70.696938,44.643799 70.864143,44.316830 71.031342,43.989861 
z"/>
<path fill="#4F80C4" opacity="1.000000" stroke="none" 
	d="
M56.899696,34.909653 
	C61.042442,36.338985 65.185188,37.768318 69.590179,39.405815 
	C69.086754,40.008099 68.321083,40.402222 66.962181,40.740776 
	C64.212135,40.709175 62.055328,40.733143 59.898521,40.757111 
	C57.351635,39.413300 54.804745,38.069485 52.238327,36.062004 
	C53.779099,35.235443 55.339397,35.072548 56.899696,34.909653 
z"/>
<path fill="#EEF6FB" opacity="1.000000" stroke="none" 
	d="
M45.008514,17.960907 
	C42.610737,17.986753 40.212955,18.012602 37.431023,18.074886 
	C38.448200,16.099939 39.849537,14.088558 41.593842,12.041922 
	C43.268547,13.096670 44.600292,14.186674 45.957344,15.624723 
	C45.982651,15.972769 46.028896,15.967310 45.728149,16.084885 
	C45.278679,16.814880 45.129951,17.427299 44.976471,18.015923 
	C44.971714,17.992128 45.008514,17.960907 45.008514,17.960907 
z"/>
<path fill="#DEDDDE" opacity="1.000000" stroke="none" 
	d="
M33.749313,31.784565 
	C32.936214,32.063385 31.498539,32.604542 30.864929,32.111786 
	C27.471548,29.472771 24.278664,26.575945 20.901333,23.449230 
	C21.346031,23.092388 21.905890,23.054525 22.884876,22.978504 
	C26.701271,25.816814 30.098537,28.693285 33.749313,31.784565 
z"/>
<path fill="#4F4B4D" opacity="1.000000" stroke="none" 
	d="
M70.674561,43.923767 
	C70.864143,44.316830 70.696938,44.643799 70.260010,45.088997 
	C68.934105,45.191460 67.877937,45.175697 66.109787,45.008251 
	C64.948593,44.734146 64.499367,44.611721 64.050148,44.489296 
	C63.748299,44.321636 63.446453,44.153976 62.997055,43.888626 
	C62.874844,43.496498 62.900173,43.202057 63.286469,42.447845 
	C64.078300,41.998055 64.509171,42.008034 64.940041,42.018013 
	C66.732620,42.631233 68.525200,43.244457 70.674561,43.923767 
z"/>
<path fill="#EEF6FB" opacity="1.000000" stroke="none" 
	d="
M84.434723,29.107533 
	C83.794647,27.852293 83.455887,26.736485 83.117126,25.620678 
	C83.845047,25.587666 84.572975,25.554655 85.300896,25.521645 
	C85.112617,26.763416 84.924332,28.005190 84.434723,29.107533 
z"/>
<path fill="#EDEEF0" opacity="1.000000" stroke="none" 
	d="
M65.239174,42.025337 
	C64.509171,42.008034 64.078300,41.998055 63.322639,42.006035 
	C62.188107,41.655491 61.378365,41.286987 60.233574,40.837799 
	C62.055328,40.733143 64.212135,40.709175 66.680618,40.906960 
	C66.507622,41.430027 66.022964,41.731346 65.239174,42.025337 
z"/>
<path fill="#F4F8FB" opacity="1.000000" stroke="none" 
	d="
M76.982071,12.991109 
	C78.224892,13.444505 79.485130,13.907898 80.745361,14.371292 
	C80.578339,14.740891 80.411324,15.110490 80.244301,15.480088 
	C79.246811,14.834433 78.249329,14.188776 77.113861,13.257011 
	C76.975876,12.970901 76.999481,13.001106 76.982071,12.991109 
z"/>
<path fill="#AAAAAA" opacity="1.000000" stroke="none" 
	d="
M58.470860,45.976959 
	C59.283432,45.850452 60.487007,45.775169 61.852757,46.019890 
	C60.963909,46.235996 59.912884,46.132092 58.470860,45.976959 
z"/>
<path fill="#5FB1E4" opacity="1.000000" stroke="none" 
	d="
M74.842094,18.710819 
	C74.791557,19.049688 74.614876,19.019184 74.381706,18.651611 
	C74.109985,17.515377 74.071426,16.746717 74.032875,15.978059 
	C74.032875,15.978059 74.001450,15.998579 73.984879,16.007511 
	C74.276413,16.801615 74.584526,17.586784 74.842094,18.710819 
z"/>
<path fill="#EDEDED" opacity="1.000000" stroke="none" 
	d="
M64.157761,44.816841 
	C64.499367,44.611721 64.948593,44.734146 65.707878,45.017258 
	C66.017944,45.177940 66.036362,45.540520 66.044754,45.720818 
	C65.457222,45.648869 64.861298,45.396626 64.157761,44.816841 
z"/>
<path fill="#F4F8FB" opacity="1.000000" stroke="none" 
	d="
M35.123894,25.388988 
	C37.122017,24.974390 38.826725,24.706989 40.494068,24.856434 
	C42.415974,25.028696 44.304893,25.568996 46.626793,25.926399 
	C48.707592,26.946373 50.369740,27.989414 52.005203,29.015709 
	C52.588879,28.647232 53.886608,27.169954 55.302132,27.046822 
	C61.873695,26.475182 68.477913,26.278875 75.503189,25.984810 
	C76.242622,33.459660 76.244553,33.498436 68.942406,33.862175 
	C65.311119,34.043060 61.671249,34.051575 57.306572,33.848331 
	C53.581406,33.473473 50.125626,30.959698 47.945515,35.191162 
	C43.568333,32.034245 39.191151,28.877331 35.123894,25.388988 
z"/>
<path fill="#F0F3F6" opacity="1.000000" stroke="none" 
	d="
M48.175964,35.463081 
	C50.125626,30.959698 53.581406,33.473473 56.848724,33.878086 
	C57.119576,34.197575 57.038090,34.562649 56.968895,34.736153 
	C55.339397,35.072548 53.779099,35.235443 52.052490,35.762039 
	C50.726257,35.995495 49.566334,35.865250 48.175964,35.463081 
z"/>
<path fill="#F8FBFD" opacity="1.000000" stroke="none" 
	d="
M46.205555,20.247807 
	C45.618275,19.751867 45.337894,19.183567 45.033012,18.288086 
	C45.008514,17.960907 44.971714,17.992128 45.270592,17.889578 
	C45.722614,17.180454 45.875755,16.573881 46.028893,15.967310 
	C46.028896,15.967310 45.982651,15.972769 45.972752,15.993393 
	C47.562077,15.380699 49.165001,14.206544 50.759823,14.217442 
	C55.199467,14.247777 59.635754,14.770047 64.574379,15.462725 
	C65.405022,16.948801 65.734642,18.070189 66.064262,19.191578 
	C62.283173,22.934656 57.950851,20.893541 53.343037,19.886791 
	C52.498604,19.099361 52.073715,18.789057 51.648823,18.478752 
	C51.416233,19.183641 51.183640,19.888531 50.951050,20.593418 
	C50.484108,20.615515 50.017162,20.637609 49.053787,20.435452 
	C48.306805,20.089266 48.044186,20.052086 47.769497,20.099659 
	C47.350483,20.124924 46.931469,20.150187 46.205555,20.247807 
M52.481289,16.599039 
	C52.481289,16.599039 52.403061,16.469978 52.481289,16.599039 
z"/>
<path fill="#E8F3F9" opacity="1.000000" stroke="none" 
	d="
M66.418060,19.169504 
	C65.734642,18.070189 65.405022,16.948801 65.026474,15.554672 
	C67.839378,14.007999 70.699150,12.770599 73.677368,15.864500 
	C74.071426,16.746717 74.109985,17.515377 74.292297,18.645212 
	C71.929123,21.650776 69.369980,21.457840 66.418060,19.169504 
z"/>
<path fill="#E8F3F9" opacity="1.000000" stroke="none" 
	d="
M51.237339,20.661177 
	C51.183640,19.888531 51.416233,19.183641 51.648823,18.478752 
	C52.073715,18.789057 52.498604,19.099361 52.962982,19.710712 
	C52.509525,20.250816 52.016575,20.489876 51.237339,20.661177 
z"/>
<path fill="#E8F3F9" opacity="1.000000" stroke="none" 
	d="
M47.922562,20.248295 
	C48.044186,20.052086 48.306805,20.089266 48.716515,20.326670 
	C48.875671,20.442142 48.468285,20.551991 48.468285,20.551991 
	C48.468285,20.551991 48.075630,20.396933 47.922562,20.248295 
z"/>
<path fill="#E2E2E2" opacity="1.000000" stroke="none" 
	d="
M111.655350,24.125008 
	C111.380745,21.719580 111.380745,19.628391 111.380745,17.239922 
	C112.694641,17.159035 114.040085,16.657606 114.841988,17.113092 
	C116.565132,18.091852 118.008194,19.563726 119.565918,20.833736 
	C117.990677,22.129452 116.514000,23.586523 114.790398,24.639353 
	C114.125679,25.045387 112.900024,24.533123 111.655350,24.125008 
z"/>
<path fill="#F6F6F6" opacity="1.000000" stroke="none" 
	d="
M360.098511,17.639708 
	C361.599548,18.939486 363.165466,19.861261 363.828979,21.222792 
	C365.665283,24.990734 365.523712,29.259735 361.971405,31.458015 
	C359.662384,32.886925 355.680450,32.890423 352.937439,32.009190 
	C349.680420,30.962841 348.503967,25.103222 350.236115,21.504541 
	C352.165894,17.495203 355.519775,16.317060 360.098511,17.639708 
z"/>
<path fill="#F0F0F0" opacity="1.000000" stroke="none" 
	d="
M265.760437,19.355869 
	C266.198395,25.681211 261.971344,24.423027 258.211334,24.611624 
	C258.211334,22.151346 258.211334,19.920786 258.211334,16.489653 
	C260.825470,17.368563 263.219910,18.173615 265.760437,19.355869 
z"/>
<path fill="#EDEDED" opacity="1.000000" stroke="none" 
	d="
M407.167419,28.818985 
	C404.967865,28.918493 403.156342,28.918493 400.717743,28.918493 
	C401.931763,25.510935 403.006500,22.494345 404.485870,18.341894 
	C405.733643,22.560219 406.644562,25.639847 407.167419,28.818985 
z"/>
<path fill="#EAEAEA" opacity="1.000000" stroke="none" 
	d="
M303.740479,26.783001 
	C304.689667,24.097176 305.505310,21.779484 306.574615,18.741053 
	C307.902466,22.337099 308.981445,25.259085 310.704865,29.926397 
	C307.517120,28.679998 305.562042,27.915565 303.740479,26.783001 
z"/>
<path fill="#5FB1E4" opacity="1.000000" stroke="none" 
	d="
M45.728149,16.084885 
	C45.875755,16.573881 45.722614,17.180454 45.275352,17.913372 
	C45.129951,17.427299 45.278679,16.814880 45.728149,16.084885 
z"/>
<path fill="#E8F3F9" opacity="1.000000" stroke="none" 
	d="
M52.442177,16.534508 
	C52.403061,16.469978 52.481289,16.599039 52.442177,16.534508 
z"/>
</svg>