<?xml version="1.0" encoding="UTF-8"?> <svg xmlns="http://www.w3.org/2000/svg" width="38.488" height="51.917" viewBox="0 0 38.488 51.917"><g id="Magnatrack_Map" transform="translate(0.25 0.25)"><g id="Group_10946" data-name="Group 10946" transform="translate(0)"><path id="Path_56654" data-name="Path 56654" d="M67.074,0A19.015,19.015,0,0,0,48.08,18.994a21.914,21.914,0,0,0,1.611,7.313,30.63,30.63,0,0,0,2.2,4.106L64.91,50.145a2.477,2.477,0,0,0,4.328,0L82.262,30.412a30.5,30.5,0,0,0,2.2-4.106,21.909,21.909,0,0,0,1.61-7.313A19.015,19.015,0,0,0,67.074,0ZM82.4,25.439a28.062,28.062,0,0,1-2,3.743L67.372,48.916c-.257.39-.339.39-.6,0L53.752,29.182a28.079,28.079,0,0,1-2-3.744,19.892,19.892,0,0,1-1.437-6.444,16.759,16.759,0,1,1,33.519,0A19.908,19.908,0,0,1,82.4,25.439Z" transform="translate(-48.08)" fill="#75140c" stroke="#75140d" stroke-width="0.5"></path><path id="Path_56655" data-name="Path 56655" d="M122.136,64.008a10.056,10.056,0,1,0,10.056,10.056A10.067,10.067,0,0,0,122.136,64.008Zm0,17.877a7.821,7.821,0,1,1,7.821-7.821A7.83,7.83,0,0,1,122.136,81.885Z" transform="translate(-103.142 -55.069)" fill="#75140c" stroke="#75140d" stroke-width="0.5"></path></g></g></svg> 