<?xml version="1.0" encoding="UTF-8"?> <svg xmlns="http://www.w3.org/2000/svg" width="43.392" height="43.392" viewBox="0 0 43.392 43.392"><g id="Magnatrack_Hours" transform="translate(0.25 0.25)"><g id="Group_10950" data-name="Group 10950" transform="translate(0)"><g id="Group_10949" data-name="Group 10949"><path id="Path_56657" data-name="Path 56657" d="M21.446,0A21.446,21.446,0,1,0,42.892,21.446,21.434,21.434,0,0,0,21.446,0Zm0,40.032A18.586,18.586,0,1,1,40.032,21.446,18.607,18.607,0,0,1,21.446,40.032Z" fill="#75140c" stroke="#75140d" stroke-width="0.5"></path></g></g><g id="Group_10952" data-name="Group 10952" transform="translate(18.334 11.625)"><g id="Group_10951" data-name="Group 10951"><path id="Path_56658" data-name="Path 56658" d="M226.385,148.158h-4.674v-7.963a1.43,1.43,0,1,0-2.859,0v9.393a1.43,1.43,0,0,0,1.43,1.43h6.1a1.43,1.43,0,0,0,0-2.859Z" transform="translate(-218.852 -138.765)" fill="#75140c" stroke="#75140d" stroke-width="0.5"></path></g></g></g></svg> 