<?xml version="1.0" encoding="UTF-8"?> <svg xmlns="http://www.w3.org/2000/svg" width="48.891" height="48.906" viewBox="0 0 48.891 48.906"><g id="Magnatrack_Phone" transform="translate(0.247 0.25)"><path id="Path_56656" data-name="Path 56656" d="M10.684,32.177a51.354,51.354,0,0,0,17.082,13.38,26.586,26.586,0,0,0,9.559,2.829c.231.01.451.02.682.02a7.916,7.916,0,0,0,6.139-2.638.219.219,0,0,0,.04-.05,25.843,25.843,0,0,1,1.936-2.006c.471-.451.953-.923,1.414-1.4a4.843,4.843,0,0,0-.02-7.212l-6.028-6.028a4.879,4.879,0,0,0-3.531-1.625,5.044,5.044,0,0,0-3.571,1.615l-3.591,3.591c-.331-.191-.672-.361-.993-.522a12.4,12.4,0,0,1-1.1-.6,38,38,0,0,1-9.077-8.265,21.885,21.885,0,0,1-3.069-4.895c.943-.853,1.826-1.745,2.678-2.618.3-.311.612-.622.923-.933A5.142,5.142,0,0,0,21.818,11.2a5.1,5.1,0,0,0-1.665-3.611L17.163,4.6c-.351-.351-.682-.692-1.023-1.043-.662-.682-1.354-1.384-2.036-2.016A5,5,0,0,0,10.574,0,5.148,5.148,0,0,0,7,1.555L3.251,5.306a7.708,7.708,0,0,0-2.3,4.935,18.564,18.564,0,0,0,1.394,8.024A46.683,46.683,0,0,0,10.684,32.177ZM3.4,10.452A5.306,5.306,0,0,1,5,7.041L8.728,3.31a2.7,2.7,0,0,1,1.846-.853,2.563,2.563,0,0,1,1.805.873c.672.622,1.3,1.274,1.986,1.966.341.351.692.7,1.043,1.063L18.4,9.348a2.724,2.724,0,0,1,.943,1.876A2.724,2.724,0,0,1,18.4,13.1c-.311.311-.622.632-.933.943-.933.943-1.805,1.836-2.768,2.688l-.05.05a1.961,1.961,0,0,0-.5,2.227c.01.03.02.05.03.08A23.606,23.606,0,0,0,17.7,24.815a40.11,40.11,0,0,0,9.669,8.807,14.359,14.359,0,0,0,1.324.722,12.4,12.4,0,0,1,1.1.6c.04.02.07.04.11.06a2.1,2.1,0,0,0,.973.251,2.127,2.127,0,0,0,1.495-.682l3.751-3.751a2.654,2.654,0,0,1,1.836-.893,2.519,2.519,0,0,1,1.775.893l6.048,6.038a2.419,2.419,0,0,1-.03,3.781c-.421.451-.863.883-1.334,1.334a28.884,28.884,0,0,0-2.1,2.177,5.507,5.507,0,0,1-4.3,1.826c-.171,0-.351-.01-.522-.02a24.153,24.153,0,0,1-8.646-2.588A48.786,48.786,0,0,1,12.59,30.633a44.684,44.684,0,0,1-7.924-13.19A16.178,16.178,0,0,1,3.4,10.452Z" transform="translate(-0.912 0)" fill="#75140c" stroke="#75140d" stroke-width="0.5"></path></g></svg> 