<?xml version="1.0" encoding="UTF-8"?> <svg xmlns="http://www.w3.org/2000/svg" width="46.023" height="35.175" viewBox="0 0 46.023 35.175"><g id="Magnatrack_email" transform="translate(0.25 -60.75)"><g id="Group_10953" data-name="Group 10953" transform="translate(0 61)"><path id="Path_56659" data-name="Path 56659" d="M41.522,61H4a4.008,4.008,0,0,0-4,4V91.674a4.007,4.007,0,0,0,4,4H41.522a4.007,4.007,0,0,0,4-4V65A4.007,4.007,0,0,0,41.522,61Zm-.552,2.667L22.846,81.79,4.566,63.667ZM2.667,91.122V65.541L15.513,78.276Zm1.886,1.886L17.407,80.154l4.5,4.465a1.334,1.334,0,0,0,1.882,0l4.392-4.392L40.969,93.008Zm38.3-1.886L30.071,78.338,42.855,65.553Z" transform="translate(0 -61)" fill="#75140c" stroke="#75140d" stroke-width="0.5"></path></g></g></svg> 