<?xml version="1.0" encoding="UTF-8"?> <svg xmlns="http://www.w3.org/2000/svg" id="Component_252_1" data-name="Component 252 – 1" width="43" height="43" viewBox="0 0 43 43"><circle id="Ellipse_85" data-name="Ellipse 85" cx="21.5" cy="21.5" r="21.5" fill="#fff" opacity="0.1"></circle><g id="twitter_1_" data-name="twitter (1)" transform="translate(11 13)"><g id="Group_303321" data-name="Group 303321"><path id="Path_56694" data-name="Path 56694" d="M20.282,49.951a8.669,8.669,0,0,1-2.4.657,4.135,4.135,0,0,0,1.829-2.3,8.31,8.31,0,0,1-2.637,1.007,4.158,4.158,0,0,0-7.193,2.843,4.282,4.282,0,0,0,.1.948,11.769,11.769,0,0,1-8.571-4.349A4.159,4.159,0,0,0,2.69,54.315,4.106,4.106,0,0,1,.811,53.8v.046a4.177,4.177,0,0,0,3.331,4.086,4.15,4.15,0,0,1-1.09.137A3.676,3.676,0,0,1,2.265,58a4.2,4.2,0,0,0,3.885,2.9A8.355,8.355,0,0,1,1,62.671a7.788,7.788,0,0,1-1-.057,11.706,11.706,0,0,0,6.379,1.866A11.753,11.753,0,0,0,18.214,52.647c0-.184-.006-.361-.015-.537A8.3,8.3,0,0,0,20.282,49.951Z" transform="translate(0 -48)" fill="#fff"></path></g></g></svg> 