<?xml version="1.0" encoding="UTF-8"?> <svg xmlns="http://www.w3.org/2000/svg" id="Component_250_1" data-name="Component 250 – 1" width="43" height="43" viewBox="0 0 43 43"><circle id="Ellipse_83" data-name="Ellipse 83" cx="21.5" cy="21.5" r="21.5" fill="#fff" opacity="0.1"></circle><g id="_x31_0.Linkedin" transform="translate(13 13)"><path id="Path_56691" data-name="Path 56691" d="M48.95,46.568V40.532c0-2.966-.639-5.232-4.1-5.232a3.577,3.577,0,0,0-3.234,1.772h-.041v-1.5H38.3v11h3.419V41.109c0-1.442.268-2.822,2.039-2.822,1.751,0,1.772,1.627,1.772,2.9v5.356H48.95Z" transform="translate(-32.47 -30.088)" fill="#fff"></path><path id="Path_56692" data-name="Path 56692" d="M11.3,36.6h3.419v11H11.3Z" transform="translate(-11.032 -31.121)" fill="#fff"></path><path id="Path_56693" data-name="Path 56693" d="M11.978,10a1.988,1.988,0,1,0,1.978,1.978A1.978,1.978,0,0,0,11.978,10Z" transform="translate(-10 -10)" fill="#fff"></path></g></svg> 