<?xml version="1.0" encoding="UTF-8"?> <svg xmlns="http://www.w3.org/2000/svg" width="17.24" height="15.187" viewBox="0 0 17.24 15.187"><g id="_6-Check" data-name="6-Check" transform="translate(-32 -59.158)"><path id="Path_56714" data-name="Path 56714" d="M39.864,74.345a.378.378,0,0,1-.278-.121l-7.486-8.1a.378.378,0,0,1,.278-.635h3.6a.378.378,0,0,1,.285.13l2.5,2.878a14.332,14.332,0,0,1,1.712-2.713,25.47,25.47,0,0,1,8.2-6.584.378.378,0,0,1,.41.632,24.728,24.728,0,0,0-3.6,3.728,27.8,27.8,0,0,0-5.265,10.5.378.378,0,0,1-.367.287Z" fill="#c1a786"></path></g></svg> 