<?xml version="1.0" encoding="UTF-8"?> <svg xmlns="http://www.w3.org/2000/svg" width="122.057" height="18.719" viewBox="0 0 122.057 18.719"><g id="Group_2138" data-name="Group 2138" transform="translate(-208 -6328.614)"><path id="Icon_ionic-ios-star" data-name="Icon ionic-ios-star" d="M21.644,9.855H15.025l-2.011-6a.729.729,0,0,0-1.368,0l-2.011,6H2.97a.722.722,0,0,0-.72.72.529.529,0,0,0,.013.121.692.692,0,0,0,.3.508l5.44,3.834-2.088,6.07a.722.722,0,0,0,.247.81.7.7,0,0,0,.4.175.882.882,0,0,0,.45-.162l5.31-3.784,5.31,3.784a.843.843,0,0,0,.45.162.646.646,0,0,0,.4-.175.713.713,0,0,0,.247-.81l-2.088-6.07,5.4-3.87.13-.112a.755.755,0,0,0,.234-.481A.762.762,0,0,0,21.644,9.855Z" transform="translate(205.75 6325.239)" fill="#f1bf42"></path><path id="Icon_ionic-ios-star-2" data-name="Icon ionic-ios-star" d="M21.644,9.855H15.025l-2.011-6a.729.729,0,0,0-1.368,0l-2.011,6H2.97a.722.722,0,0,0-.72.72.529.529,0,0,0,.013.121.692.692,0,0,0,.3.508l5.44,3.834-2.088,6.07a.722.722,0,0,0,.247.81.7.7,0,0,0,.4.175.882.882,0,0,0,.45-.162l5.31-3.784,5.31,3.784a.843.843,0,0,0,.45.162.646.646,0,0,0,.4-.175.713.713,0,0,0,.247-.81l-2.088-6.07,5.4-3.87.13-.112a.755.755,0,0,0,.234-.481A.762.762,0,0,0,21.644,9.855Z" transform="translate(231.225 6325.239)" fill="#f1bf42"></path><path id="Icon_ionic-ios-star-3" data-name="Icon ionic-ios-star" d="M21.644,9.855H15.025l-2.011-6a.729.729,0,0,0-1.368,0l-2.011,6H2.97a.722.722,0,0,0-.72.72.529.529,0,0,0,.013.121.692.692,0,0,0,.3.508l5.44,3.834-2.088,6.07a.722.722,0,0,0,.247.81.7.7,0,0,0,.4.175.882.882,0,0,0,.45-.162l5.31-3.784,5.31,3.784a.843.843,0,0,0,.45.162.646.646,0,0,0,.4-.175.713.713,0,0,0,.247-.81l-2.088-6.07,5.4-3.87.13-.112a.755.755,0,0,0,.234-.481A.762.762,0,0,0,21.644,9.855Z" transform="translate(256.699 6325.239)" fill="#f1bf42"></path><path id="Icon_ionic-ios-star-4" data-name="Icon ionic-ios-star" d="M21.644,9.855H15.025l-2.011-6a.729.729,0,0,0-1.368,0l-2.011,6H2.97a.722.722,0,0,0-.72.72.529.529,0,0,0,.013.121.692.692,0,0,0,.3.508l5.44,3.834-2.088,6.07a.722.722,0,0,0,.247.81.7.7,0,0,0,.4.175.882.882,0,0,0,.45-.162l5.31-3.784,5.31,3.784a.843.843,0,0,0,.45.162.646.646,0,0,0,.4-.175.713.713,0,0,0,.247-.81l-2.088-6.07,5.4-3.87.13-.112a.755.755,0,0,0,.234-.481A.762.762,0,0,0,21.644,9.855Z" transform="translate(282.173 6325.239)" fill="#f1bf42"></path><path id="Icon_ionic-ios-star-5" data-name="Icon ionic-ios-star" d="M21.644,9.855H15.025l-2.011-6a.729.729,0,0,0-1.368,0l-2.011,6H2.97a.722.722,0,0,0-.72.72.529.529,0,0,0,.013.121.692.692,0,0,0,.3.508l5.44,3.834-2.088,6.07a.722.722,0,0,0,.247.81.7.7,0,0,0,.4.175.882.882,0,0,0,.45-.162l5.31-3.784,5.31,3.784a.843.843,0,0,0,.45.162.646.646,0,0,0,.4-.175.713.713,0,0,0,.247-.81l-2.088-6.07,5.4-3.87.13-.112a.755.755,0,0,0,.234-.481A.762.762,0,0,0,21.644,9.855Z" transform="translate(307.648 6325.239)" fill="#f1bf42"></path></g></svg> 