<?xml version="1.0" encoding="UTF-8"?> <svg xmlns="http://www.w3.org/2000/svg" id="Component_201_1" data-name="Component 201 – 1" width="43" height="43" viewBox="0 0 43 43"><circle id="Ellipse_86" data-name="Ellipse 86" cx="21.5" cy="21.5" r="21.5" fill="#fff" opacity="0.1"></circle><g id="wechat" transform="translate(12 13)"><g id="Group_303323" data-name="Group 303323"><g id="Group_303322" data-name="Group 303322"><path id="Path_56695" data-name="Path 56695" d="M7.063,32C3.162,32,0,34.636,0,37.886A5.571,5.571,0,0,0,2.7,42.5L1.766,44.36,4.3,43.273a8.018,8.018,0,0,0,1.713.426,4.928,4.928,0,0,1-.129-1.105c0-3.245,3.168-5.886,7.063-5.886A8.543,8.543,0,0,1,14,36.78C13.375,34.059,10.509,32,7.063,32ZM4.708,36.414a.883.883,0,1,1,.883-.883A.883.883,0,0,1,4.708,36.414Zm4.708,0a.883.883,0,1,1,.883-.883A.883.883,0,0,1,9.417,36.414Z" transform="translate(0 -32)" fill="#fff"></path></g></g><g id="Group_303325" data-name="Group 303325" transform="translate(7.063 5.886)"><g id="Group_303324" data-name="Group 303324"><path id="Path_56696" data-name="Path 56696" d="M203.771,196.708c0-2.6-2.636-4.708-5.886-4.708S192,194.108,192,196.708s2.636,4.708,5.886,4.708a7.192,7.192,0,0,0,1.536-.182l3.172,1.36-1.1-2.193A4.436,4.436,0,0,0,203.771,196.708Zm-7.651-.294a.883.883,0,1,1,.883-.883A.883.883,0,0,1,196.12,196.414Zm3.531,0a.883.883,0,1,1,.883-.883A.883.883,0,0,1,199.651,196.414Z" transform="translate(-192 -192)" fill="#fff"></path></g></g></g></svg> 