<?xml version="1.0" encoding="UTF-8"?>
<svg xmlns="http://www.w3.org/2000/svg" version="1.1" viewBox="0 0 24 24">
  <defs>
    <style>
      .cls-1 {
        fill: #c1a786;
      }
    </style>
  </defs>
  <!-- Generator: Adobe Illustrator 28.6.0, SVG Export Plug-In . SVG Version: 1.2.0 Build 709)  -->
  <g>
    <g id="Layer_1">
      <path class="cls-1" d="M3,10.5c0-4.1,3.4-7.5,7.5-7.5s7.5,3.4,7.5,7.5-3.4,7.5-7.5,7.5-7.5-3.4-7.5-7.5M23.6,21.4l-4.7-4.7c1.3-1.8,2.1-3.9,2.1-6.3C21,4.7,16.3,0,10.5,0S0,4.7,0,10.5s4.7,10.5,10.5,10.5,4.5-.8,6.3-2.1l4.7,4.7c.3.3.7.4,1.1.4s.8-.1,1.1-.4c.6-.6.6-1.5,0-2.1"/>
    </g>
  </g>
</svg>