<svg xmlns="http://www.w3.org/2000/svg" width="10" height="11" viewBox="0 0 10 11">
  <g id="user" transform="translate(-31)">
    <g id="Group_304405" data-name="Group 304405" transform="translate(33.025)">
      <g id="Group_304404" data-name="Group 304404">
        <path id="Path_57794" data-name="Path 57794" d="M123.975,0a2.975,2.975,0,1,0,2.975,2.975A2.979,2.979,0,0,0,123.975,0Z" transform="translate(-121 0)" fill="#fff"/>
      </g>
    </g>
    <g id="Group_304407" data-name="Group 304407" transform="translate(31 6.328)">
      <g id="Group_304406" data-name="Group 304406">
        <path id="Path_57795" data-name="Path 57795" d="M39.733,301.283A4.294,4.294,0,0,0,36.667,300H35.333A4.353,4.353,0,0,0,31,304.342a.332.332,0,0,0,.333.331h9.333a.332.332,0,0,0,.333-.331A4.318,4.318,0,0,0,39.733,301.283Z" transform="translate(-31 -300)" fill="#fff"/>
      </g>
    </g>
  </g>
</svg>
